# AST/ASF file generated using VICON BodyLanguage
# -----------------------------------------------
:version 1.10
:name VICON
:units
  mass 1.0
  length 0.45
  angle deg
:documentation
   .ast/.asf automatically generated from VICON data using
   VICON BodyBuilder and BodyLanguage model FoxedUp or BRILLIANT.MOD
:root
   order TX TY TZ RX RY RZ
   axis XYZ
   position 0 0 0  
   orientation 0 0 0 
:bonedata
  begin
     id 1 
     name lhipjoint
     direction 0.567725 -0.736092 0.368589 
     length 2.42353 
     axis 0 0 0  XYZ
  end
  begin
     id 2 
     name lfemur
     direction 0.34202 -0.939693 0  
     length 7.24894  
     axis 0 0 20  XYZ
    dof rx ry rz
    limits (-160.0 20.0)
           (-70.0 70.0)
           (-60.0 70.0)
  end
  begin
     id 3 
     name ltibia
     direction 0.34202 -0.939693 0   
     length 7.6997   
     axis 0 0 20   XYZ
    dof rx
    limits (-10.0 170.0)
  end
  begin
     id 4 
     name lfoot
     direction 0.100767 -0.276854 0.955614   
     length 2.37556   
     axis -90 7.62852e-016 20   XYZ
    dof rx rz
    limits (-45.0 90.0)
           (-70.0 20.0)
  end
  begin
     id 5 
     name ltoes
     direction 1.53592e-011 -4.21894e-011 1   
     length 1.18363   
     axis -90 7.62852e-016 20   XYZ
    dof rx
    limits (-90.0 20.0)
  end
  begin
     id 6 
     name rhipjoint
     direction -0.556459 -0.742938 0.372017   
     length 2.4012  
     axis 0 0 0  XYZ 
  end
  begin
     id 7 
     name rfemur
     direction -0.34202 -0.939693 0   
     length 7.5119   
     axis 0 0 -20   XYZ
    dof rx ry rz
    limits (-160.0 20.0)
           (-70.0 70.0)
           (-70.0 60.0)
  end
  begin
     id 8 
     name rtibia
     direction -0.34202 -0.939693 0   
     length 7.50155   
     axis 0 0 -20   XYZ
    dof rx
    limits (-10.0 170.0)
 end
 begin
     id 9 
     name rfoot
     direction -0.118427 -0.325376 0.938139   
     length 2.32487  
     axis -90 -7.62852e-016 -20   XYZ
    dof rx rz
    limits (-45.0 90.0)
           (-20.0 70.0)
  end
  begin
     id 10 
     name rtoes
     direction -1.53525e-011 -4.21868e-011 1   
     length 1.15233   
     axis -90 -7.62852e-016 -20   XYZ
    dof rx
    limits (-90.0 20.0)
  end
  begin
     id 11 
     name lowerback
     direction 0.0287568 0.999577 -0.00434502   
     length 2.15243   
     axis 0 0 0   XYZ
    dof rx ry rz
    limits (-20.0 45.0)
           (-30.0 30.0)
           (-30.0 30.0)
  end
  begin
     id 12 
     name upperback
     direction 0.0294009 0.99956 0.00404628   
     length 2.15427   
     axis 0 0 0   XYZ
    dof rx ry rz
    limits (-20.0 45.0)
           (-30.0 30.0)
           (-30.0 30.0)
  end
  begin
     id 13 
     name thorax
     direction 0.0151014 0.999868 0.0059419   
     length 2.14898   
     axis 0 0 0   XYZ
    dof rx ry rz
    limits (-20.0 45.0)
           (-30.0 30.0)
           (-30.0 30.0)
  end
  begin
     id 14 
     name lowerneck
     direction -0.0249197 0.989906 0.139515   
     length 1.6861   
     axis 0 0 0   XYZ
    dof rx ry rz
    limits (-20.0 45.0)
           (-30.0 30.0)
           (-30.0 30.0)
  end
  begin
     id 15 
     name upperneck
     direction 0.0438463 0.988795 -0.142693   
     length 1.71276   
     axis 0 0 0   XYZ
    dof rx ry rz
    limits (-20.0 45.0)
           (-30.0 30.0)
           (-30.0 30.0)
  end
  begin
     id 16
     name head
     direction 0.0148499 0.997845 -0.0639186  
     length 1.7209  
     axis 0 0 0   XYZ
    dof rx ry rz
    limits (-20.0 45.0)
           (-30.0 30.0)
           (-30.0 30.0)
  end
  begin
     id 17 
     name lclavicle
     direction 0.940298 0.323464 -0.105876  
     length 3.9048  
     axis 0 0 0   XYZ
    dof ry rz
    limits (-20.0 10.0)
           (0.0 20.0)
  end
  begin
     id 18 
     name lhumerus
     direction 1 -4.48954e-011 -4.9675e-028   
     length 4.6851   
     axis 180 -30 -90   XYZ
    dof rx ry rz
    limits (-60.0 90.0)
           (-90.0 90.0)
           (-90.0 90.0)
  end
  begin
     id 19
     name lradius
     direction 1 -4.48992e-011 -1.03359e-026   
     length 3.39626   
     axis 180 -30 -90   XYZ
    dof rx
    limits (-10.0 170.0)
  end
  begin
     id 20
     name lwrist
     direction 1 -4.48906e-011 -1.67336e-026   
     length 1.69813   
     axis 9.90442e-015 90 90   XYZ
    dof ry
    limits (-180.0 0.0)
 end
  begin
     id 21 
     name lhand
     direction 1 -4.49006e-011 -3.34673e-026   
     length 0.486078   
     axis 2.1355e-014 90 90   XYZ
    dof rx rz
    limits (-90.0 90.0)
           (-45.0 45.0)
  end
  begin
     id 22 
     name lfingers
     direction 1 -4.48992e-011 -6.69345e-026   
     length 0.391889   
     axis 4.27099e-014 90 90   XYZ
    dof rx
    limits (0.0 90.0)
  end
  begin
     id 23
     name lthumb
     direction 0.707107 -6.34926e-011 0.707107   
     length 0.562676   
     axis -90 45 2.85299e-015   XYZ
    dof rx rz
    limits (-45.0 45.0)
           (-45.0 45.0)
  end
  begin
     id 24 
     name rclavicle
     direction -0.882459 0.414895 -0.221648   
     length 3.44646  
     axis 0 0 0   XYZ 
    dof ry rz
    limits (-10.0 20.0)
           (-20.0 0.0)
  end
  begin
     id 25 
     name rhumerus
     direction -1 -4.48962e-011 -2.37984e-027  
     length 5.55576   
     axis 180 30 90   XYZ
    dof rx ry rz
    limits (-90.0 60.0)
           (-90.0 90.0)
           (-90.0 90.0)
  end
  begin
     id 26 
     name rradius
     direction -1 -4.48982e-011 -6.86791e-027   
     length 3.32774   
     axis 180 30 90   XYZ
    dof rx
    limits (-10.0 170.0)
  end
  begin
     id 27 
     name rwrist
     direction -1 -4.48961e-011 -1.67336e-026   
     length 1.66387   
     axis 9.90442e-015 -90 -90   XYZ
    dof ry
    limits (-180.0 0.0)
  end
  begin
     id 28
     name rhand
     direction -1 -4.4897e-011 -3.34673e-026   
     length 0.507628   
     axis 2.1355e-014 -90 -90   XYZ
    dof rx rz
    limits (-90.0 90.0)
           (-45.0 45.0)
  end
  begin
     id 29
     name rfingers
     direction -1 -4.48854e-011 -6.69345e-026   
     length 0.409263   
     axis 4.27099e-014 -90 -90   XYZ
    dof rx
    limits (0.0 90.0)
  end
  begin
     id 30
     name rthumb
     direction -0.707107 -6.34913e-011 0.707107   
     length 0.587622   
     axis -90 -45 -2.85299e-015   XYZ
    dof rx rz
    limits (-45.0 45.0)
           (-45.0 45.0)
  end
:hierarchy
  begin
    root lhipjoint rhipjoint lowerback
    lhipjoint lfemur
    lfemur ltibia
    ltibia lfoot
    lfoot ltoes
    rhipjoint rfemur
    rfemur rtibia
    rtibia rfoot
    rfoot rtoes
    lowerback upperback
    upperback thorax
    thorax lowerneck lclavicle rclavicle
    lowerneck upperneck
    upperneck head
    lclavicle lhumerus
    lhumerus lradius
    lradius lwrist
    lwrist lhand lthumb
    lhand lfingers
    rclavicle rhumerus
    rhumerus rradius
    rradius rwrist
    rwrist rhand rthumb
    rhand rfingers
  end

#!OML:ASF E:\motion texture\Top Level 1\Subject 1\Session 1\male.ASF
:FULLY-SPECIFIED
:DEGREES
44
root 36.5378 17.4759 5.69547 105.136 -80.6192 -91.7968
lowerback -1.18338 1.69091 7.23563
upperback -1.14406 2.15195 1.93141
thorax -0.323891 1.01539 -2.03609
lowerneck -20.5969 -2.64457 -7.60878
upperneck 12.4102 -2.46487 6.08468
head 7.34048 -0.969376 2.94689
rclavicle -8.84592e-015 1.07344e-014
rhumerus -22.4826 10.1873 -90.2718
rradius 54.9284
rwrist 10.2636
rhand -19.9867 -26.3942
rfingers 7.12502
rthumb 6.35266 -56.279
lclavicle -8.84592e-015 1.07344e-014
lhumerus -32.703 15.3444 85.7384
lradius 41.3719
lwrist -14.8325
lhand -18.6445 22.8842
lfingers 7.12502
lthumb 7.64829 52.7259
rfemur -2.78985 2.95999 32.7035
rtibia 18.4705
rfoot -15.9019 -5.25676
rtoes 16.1636
lfemur -36.6115 0.305725 -4.19823
ltibia 17.2412
lfoot -4.57572 10.9569
ltoes -10.056
45
root 36.4233 17.4742 5.71626 104.732 -80.6849 -91.3978
lowerback -1.19828 1.7027 7.13316
upperback -1.15029 2.16862 1.90403
thorax -0.323035 1.02471 -2.00687
lowerneck -20.5371 -2.66773 -7.5906
upperneck 12.4142 -2.50902 6.10121
head 7.33516 -0.988927 2.94408
rclavicle -2.83268e-015 -3.61788e-014
rhumerus -22.3869 10.2548 -90.3046
rradius 55.3504
rwrist 10.375
rhand -20.2516 -26.4097
rfingers 7.12502
rthumb 6.09691 -56.3019
lclavicle -2.83268e-015 -3.61788e-014
lhumerus -32.4471 14.793 86.122
lradius 41.6299
lwrist -14.6601
lhand -18.7688 22.9571
lfingers 7.12502
lthumb 7.52828 52.8031
rfemur -2.8245 2.83526 32.5135
rtibia 19.1396
rfoot -15.5725 -5.18646
rtoes 15.0506
lfemur -36.4498 0.165323 -4.32281
ltibia 17.0918
lfoot -4.33665 10.8753
ltoes -9.75495
46
root 36.3071 17.4734 5.73759 104.3 -80.7621 -90.9812
lowerback -1.21126 1.71191 7.01673
upperback -1.15568 2.18226 1.87446
thorax -0.323086 1.03266 -1.97225
lowerneck -20.4786 -2.69263 -7.5714
upperneck 12.4248 -2.5564 6.1203
head 7.33248 -1.00975 2.94163
rclavicle 4.07509e-015 4.65156e-014
rhumerus -22.2966 10.3172 -90.3433
rradius 55.773
rwrist 10.4963
rhand -20.5224 -26.416
rfingers 7.12502
rthumb 5.83551 -56.3157
lclavicle 4.07509e-015 4.65156e-014
lhumerus -32.1777 14.2133 86.5142
lradius 41.8798
lwrist -14.4884
lhand -18.8814 23.0287
lfingers 7.12502
lthumb 7.41965 52.8786
rfemur -2.88962 2.69834 32.3039
rtibia 19.8696
rfoot -15.1782 -5.11912
rtoes 13.9227
lfemur -36.2702 0.0508119 -4.48959
ltibia 17.0043
lfoot -4.11188 10.7533
ltoes -9.42872
47
root 36.1892 17.4734 5.75945 103.831 -80.8496 -90.5358
lowerback -1.22417 1.71898 6.88755
upperback -1.16029 2.19324 1.84345
thorax -0.32304 1.03941 -1.93206
lowerneck -20.4214 -2.71894 -7.55018
upperneck 12.4411 -2.6064 6.13961
head 7.33207 -1.03171 2.93866
rclavicle -2.13694e-015 5.20816e-014
rhumerus -22.2109 10.3746 -90.3865
rradius 56.1957
rwrist 10.6279
rhand -20.7983 -26.4142
rfingers 7.12502
rthumb 5.56906 -56.3211
lclavicle -2.13694e-015 5.20816e-014
lhumerus -31.8954 13.6021 86.9161
lradius 42.1229
lwrist -14.3135
lhand -18.9825 23.1036
lfingers 7.12502
lthumb 7.32202 52.9569
rfemur -2.98865 2.54698 32.0762
rtibia 20.6627
rfoot -14.719 -5.05791
rtoes 12.7906
lfemur -36.0736 -0.0388277 -4.69553
ltibia 16.9728
lfoot -3.90459 10.594
ltoes -9.08087
48
root 36.0699 17.4743 5.7818 103.314 -80.9482 -90.0497
lowerback -1.23517 1.72267 6.74575
upperback -1.16516 2.20014 1.8104
thorax -0.325067 1.04418 -1.88708
lowerneck -20.366 -2.74598 -7.52753
upperneck 12.4642 -2.65802 6.15957
head 7.33429 -1.05432 2.93555
rclavicle -2.03754e-015 -3.97569e-015
rhumerus -22.1298 10.4299 -90.4357
rradius 56.6177
rwrist 10.7695
rhand -21.0814 -26.4051
rfingers 7.12502
rthumb 5.29579 -56.319
lclavicle -2.03754e-015 -3.97569e-015
lhumerus -31.6022 12.9614 87.3247
lradius 42.3598
lwrist -14.1348
lhand -19.07 23.1793
lfingers 7.12502
lthumb 7.23759 53.0355
rfemur -3.12507 2.3807 31.8301
rtibia 21.5202
rfoot -14.1972 -5.0129
rtoes 11.6483
lfemur -35.862 -0.107397 -4.93924
ltibia 16.9938
lfoot -3.71326 10.4017
ltoes -8.71795
49
root 35.9492 17.4761 5.80456 102.762 -81.0565 -89.5407
lowerback -1.24226 1.7238 6.59199
upperback -1.16802 2.20409 1.77564
thorax -0.32784 1.04763 -1.83734
lowerneck -20.3113 -2.77424 -7.50218
upperneck 12.4907 -2.71207 6.17907
head 7.33786 -1.078 2.93158
rclavicle -2.0276e-014 -2.70347e-014
rhumerus -22.0532 10.4849 -90.4909
rradius 57.0405
rwrist 10.9223
rhand -21.3682 -26.3909
rfingers 7.12502
rthumb 5.01885 -56.3114
lclavicle -2.0276e-014 -2.70347e-014
lhumerus -31.2979 12.2909 87.7395
lradius 42.5918
lwrist -13.9507
lhand -19.1453 23.2551
lfingers 7.12502
lthumb 7.16492 53.1139
rfemur -3.29436 2.20165 31.5673
rtibia 22.4408
rfoot -13.6174 -4.98537
rtoes 10.5178
lfemur -35.625 -0.157283 -5.21523
ltibia 17.0564
lfoot -3.5422 10.1803
ltoes -8.31707
50
root 35.8271 17.4789 5.82773 102.174 -81.1758 -89.0053
lowerback -1.24709 1.7225 6.42475
upperback -1.17007 2.20518 1.73901
thorax -0.33169 1.04975 -1.7821
lowerneck -20.2585 -2.80316 -7.47397
upperneck 12.5228 -2.76762 6.19708
head 7.34367 -1.10239 2.92651
rclavicle -1.6201e-014 -5.22804e-014
rhumerus -21.9802 10.5412 -90.5514
rradius 57.4627
rwrist 11.0869
rhand -21.6549 -26.3814
rfingers 7.12502
rthumb 4.742 -56.3083
lclavicle -1.6201e-014 -5.22804e-014
lhumerus -30.9839 11.5906 88.1598
lradius 42.8193
lwrist -13.7612
lhand -19.2073 23.3207
lfingers 7.12502
lthumb 7.105 53.1814
rfemur -3.5028 2.00901 31.2859
rtibia 23.4258
rfoot -12.9832 -4.9771
rtoes 9.39841
lfemur -35.3665 -0.192597 -5.52163
ltibia 17.1554
lfoot -3.39111 9.93762
ltoes -7.89174
51
root 35.7038 17.4827 5.85089 101.682 -81.3016 -88.5776
lowerback -1.2433 1.72462 6.2408
upperback -1.16997 2.21167 1.70124
thorax -0.338321 1.05469 -1.71888
lowerneck -20.207 -2.83251 -7.44512
upperneck 12.5601 -2.82425 6.21623
head 7.35144 -1.12715 2.92163
rclavicle 1.50082e-014 1.63003e-014
rhumerus -21.9101 10.6022 -90.6185
rradius 57.8851
rwrist 11.2636
rhand -21.9447 -26.3594
rfingers 7.12502
rthumb 4.46214 -56.2924
lclavicle 1.50082e-014 1.63003e-014
lhumerus -30.6614 10.862 88.583
lradius 43.0435
lwrist -13.5664
lhand -19.2608 23.3931
lfingers 7.12502
lthumb 7.05342 53.2556
rfemur -3.74862 1.81892 30.9901
rtibia 24.4812
rfoot -12.298 -4.98655
rtoes 8.34459
lfemur -35.0701 -0.198152 -5.85018
ltibia 17.2752
lfoot -3.2556 9.68228
ltoes -7.44815
52
root 35.5795 17.4875 5.87436 101.185 -81.4372 -88.1551
lowerback -1.23579 1.72532 6.04545
upperback -1.16859 2.21665 1.66123
thorax -0.346186 1.05898 -1.6517
lowerneck -20.1569 -2.86205 -7.41511
upperneck 12.6015 -2.88155 6.23541
head 7.36084 -1.15216 2.91653
rclavicle -3.23025e-015 1.68967e-014
rhumerus -21.8397 10.668 -90.6917
rradius 58.3035
rwrist 11.4534
rhand -22.239 -26.33
rfingers 7.12502
rthumb 4.17797 -56.2688
lclavicle -3.23025e-015 1.68967e-014
lhumerus -30.3303 10.1066 89.0078
lradius 43.264
lwrist -13.3648
lhand -19.3029 23.456
lfingers 7.12502
lthumb 7.01274 53.3198
rfemur -4.03564 1.6171 30.6769
rtibia 25.5979
rfoot -11.5593 -5.02274
rtoes 7.33668
lfemur -34.7466 -0.192943 -6.20083
ltibia 17.4142
lfoot -3.13364 9.41619
ltoes -6.99264
53
root 35.4541 17.4931 5.89815 100.676 -81.5812 -87.7287
lowerback -1.22541 1.72439 5.84084
upperback -1.16607 2.21972 1.6195
thorax -0.354922 1.06239 -1.58121
lowerneck -20.1079 -2.89162 -7.38286
upperneck 12.6473 -2.93927 6.25262
head 7.37181 -1.17743 2.91038
rclavicle -9.93923e-017 -1.78906e-015
rhumerus -21.7733 10.741 -90.7704
rradius 58.7247
rwrist 11.6569
rhand -22.5344 -26.2918
rfingers 7.12502
rthumb 3.89274 -56.2359
lclavicle -9.93923e-017 -1.78906e-015
lhumerus -29.9921 9.32525 89.4332
lradius 43.482
lwrist -13.1565
lhand -19.3352 23.5171
lfingers 7.12502
lthumb 6.98158 53.382
rfemur -4.36538 1.40368 30.349
rtibia 26.7739
rfoot -10.7697 -5.08886
rtoes 6.38646
lfemur -34.3954 -0.181332 -6.5688
ltibia 17.5649
lfoot -3.02964 9.14638
ltoes -6.50506
